<svg xmlns="http://www.w3.org/2000/svg" xmlns:xlink="http://www.w3.org/1999/xlink" viewBox="0 0 40 40"><defs><style>.cls-1{fill:none;}.cls-2{clip-path:url(#clip-path);}.cls-3{fill:#010101;}.cls-4{fill:#c7483d;}.cls-5{fill:#fdce24;}</style><clipPath id="clip-path"><circle class="cls-1" cx="20" cy="20" r="20"/></clipPath></defs><g id="Capa_2" data-name="Capa 2"><g id="Capa_1-2" data-name="Capa 1"><g class="cls-2"><path class="cls-3" d="M-20.47,13c0-3.81-.05-7.62,0-11.43a3.32,3.32,0,0,1,3.17-3c.19,0,.38,0,.56,0H56.76A3.61,3.61,0,0,1,59.83-.1a2.66,2.66,0,0,1,.67,1.65l0,11.43a1,1,0,0,1-.79.29H-18.89C-19.42,13.27-20,13.43-20.47,13Z"/><path class="cls-4" d="M-20.47,13H60.47V27.31a1.08,1.08,0,0,1-.81.25c-.26,0-.53,0-.79,0H-18.87c-.54,0-1.12.15-1.61-.25Z"/><path class="cls-5" d="M-20.48,27.31h81c0,3.68.05,7.36,0,11a3.31,3.31,0,0,1-3.26,3.08H-16.6A3.71,3.71,0,0,1-19.93,40a2.87,2.87,0,0,1-.57-1.62C-20.5,34.67-20.48,31-20.48,27.31Z"/></g></g></g></svg>